<?xml version="1.0" encoding="UTF-8"?><svg id="_레이어_2" xmlns="http://www.w3.org/2000/svg" viewBox="0 0 1070.18 594.47"><g id="_레이어_1-2"><path d="M193.79,156.49c-.55,20.43-.49,40.87.24,61.29s1.58,41.94,4.35,62.6c1.77,13.19,10.4,21.23,23.73,22.16,10.06.71,20.23.63,30.31.93,20.55.62,41.1,1.22,61.65,1.82,23.53.69,47.07,1.37,70.6,2.04,7.98.23,15.61-7.18,15.25-15.25s-6.7-15.01-15.25-15.25c-38.12-1.09-76.24-2.2-114.35-3.33-9.61-.29-19.22-.57-28.84-.86-4.64-.14-9.28-.28-13.92-.42-.99-.03-1.99-.06-2.98-.09l-.99-.03c-1.66-.11-1.97-.1-.91,0-.02-.36,5.21,3.77,5.35,3.85.55,1.35.68,1.5.39.43-.18-.9-.2-.91-.06-.05.34,1.95-.09-1.24-.1-1.33-.11-1.31-.25-2.63-.37-3.94-.21-2.3-.41-4.6-.6-6.9-.41-4.93-.79-9.86-1.13-14.79-.63-9.21-1.13-18.42-1.49-27.64-.86-21.74-.97-43.5-.39-65.25.21-7.98-7.17-15.61-15.25-15.25s-15.02,6.7-15.25,15.25h0Z" style="stroke-width:0px;"/><path d="M292.05,162.56c.72,57.5,5.71,114.82,14.52,171.64,1.26,8.15,11.47,12.65,18.76,10.65,8.69-2.39,11.92-10.59,10.65-18.76-8.32-53.62-12.75-108.75-13.43-163.53-.1-7.97-6.94-15.62-15.25-15.25-8.18.37-15.36,6.7-15.25,15.25h0Z" style="stroke-width:0px;"/><path d="M470.37,165.11c-9.65,20.5-12.64,42.5-13.01,64.99-.32,19.49-.55,40.57,5.41,59.32,11.29,35.5,50,56,85.88,56.19,21.84.12,41.28-11.07,53.17-29.14,10.77-16.36,13.86-36.63,14.92-55.79,1.05-18.97.51-39.15-5.71-57.28-6.95-20.27-20.53-36.05-37.93-48.23-15.96-11.18-35.99-20.86-55.88-20.81s-37.76,12.47-46.85,30.75c-3.66,7.37-1.97,16.51,5.47,20.86,6.75,3.95,17.18,1.93,20.86-5.47,1.37-2.76,2.89-5.39,4.64-7.93-1.54,2.23,1.44-1.59,1.95-2.1.81-.82,4.3-3.38,1.67-1.65,1.17-.77,2.35-1.47,3.56-2.17.51-.3,1.06-.51,1.58-.78-2.79,1.47-1.24.47-.4.26,1.31-.33,2.61-.73,3.93-1.05.58-.14,3.01-.27.87-.18-2.42.1,1.41,0,1.52-.01,1.21-.04,2.43-.02,3.64.04.83.04,1.64.13,2.47.19-.57-.04-3.19-.59-.3-.02,3.27.65,6.48,1.43,9.64,2.49,1.55.52,3.07,1.09,4.59,1.68-2.55-.99,1.61.74,2.31,1.07,3.84,1.82,7.61,3.83,11.27,5.99,7.27,4.29,11.22,7.11,16.68,12.32,2.67,2.56,5.26,5.28,7.53,8.21-1.19-1.53.4.61.5.77.61.93,1.25,1.83,1.84,2.77,1.17,1.86,2.24,3.77,3.21,5.73.48.97.97,1.96,1.39,2.95-.14-.34-.61-1.5,0,.13.67,1.78,1.28,3.58,1.82,5.4,1.25,4.18,2.16,8.45,2.85,12.76,0-.05.35,2.61.18,1.23-.19-1.58.17,1.78.2,2.07.19,1.92.34,3.84.45,5.77.24,4.12.33,8.25.32,12.38-.02,7.91-.43,15.88-1.4,23.73-.22,1.81-.04.23.02-.12-.16,1.05-.33,2.09-.51,3.13-.32,1.82-.69,3.62-1.1,5.42-.88,3.82-2.01,7.57-3.37,11.25-1.08,2.93-.55,1.27-.27.66-.43.94-.89,1.88-1.36,2.8-.84,1.62-1.75,3.19-2.73,4.73-2.09,3.28-2.74,3.81-6.15,7.24-.18.18-2.19,1.84-.56.59-.62.48-1.28.9-1.94,1.33-1.53,1-3.13,1.87-4.75,2.72-2.72,1.42-1.31.58-.66.33-.97.37-1.97.7-2.97,1-2,.6-4.05,1.1-6.12,1.41,2.27-.34-2.22.06-2.85.07-1.5.03-3-.02-4.5-.1s-3.09-.26-4.64-.4c-2.37-.21,2.36.5,0-.02-.9-.2-1.82-.31-2.73-.49-3.48-.68-6.92-1.57-10.3-2.63-1.6-.51-3.19-1.06-4.77-1.64-.68-.25-1.35-.51-2.02-.78,2.45.96-.54-.25-1-.46-3.04-1.4-6-2.97-8.86-4.71-1.41-.86-2.79-1.75-4.14-2.69-.76-.53-1.53-1.07-2.26-1.64,1.69,1.32.15.05-.65-.65-2.35-2.05-4.53-4.27-6.52-6.67-1.11-1.34.28.34.41.52-.48-.71-.98-1.4-1.43-2.12-1.12-1.78-2.1-3.65-3-5.55.89,1.89-.19-.46-.29-.74-.36-1-.71-2-1.04-3.01-.73-2.3-1.34-4.64-1.85-7-.46-2.13-.86-4.27-1.17-6.43-.39-2.7.19,1.87-.09-.86-.14-1.38-.28-2.76-.39-4.14-.73-9.1-.78-18.26-.85-27.39-.14-19.14,1.04-38.33,8.88-54.98,3.51-7.45,2.08-16.45-5.47-20.86-6.62-3.87-17.34-2.01-20.86,5.47Z" style="stroke-width:0px;"/><path d="M690.94,128.14c-1.12,42.93,2.74,85.97,11.28,128.06,2.1,10.34,4.5,20.63,7.19,30.83,2.99,11.31,6.69,22.46,19.27,25.98,5.01,1.4,10.38.75,15.48.41s10.34-.73,15.5-1.17c10.97-.93,21.92-2.06,32.85-3.4,24.5-3,48.87-6.9,73.06-11.84,8.07-1.65,12.73-11.2,10.65-18.76-2.31-8.39-10.66-12.3-18.76-10.65-38.12,7.78-75.45,12.85-114.27,15.37-2.06.13-4.23.04-6.26.37-1.47.24-1.75-.75-.14.24,1.2.74,2.76,1.45,3.65,2.57.64.81.46,2.46.71,1.13.07-.39-.45-1.5-.57-1.9-.8-2.76-1.52-5.56-2.24-8.34-2.42-9.29-4.59-18.64-6.51-28.04-3.88-18.93-6.55-36.79-8.29-55.72-1.99-21.67-2.65-43.43-2.09-65.18.21-7.98-7.16-15.61-15.25-15.25s-15.03,6.7-15.25,15.25h0Z" style="stroke-width:0px;"/><path d="M801.78,178.73c1.42,60.64.91,121.32-1.55,181.93-.32,7.98,7.25,15.61,15.25,15.25,8.54-.38,14.9-6.7,15.25-15.25,2.45-60.61,2.97-121.29,1.55-181.93-.19-7.97-6.88-15.62-15.25-15.25-8.1.36-15.45,6.71-15.25,15.25h0Z" style="stroke-width:0px;"/><path d="M60.67,409.04c2.94,2.09,6.61,2.69,10.13,2.99s6.97.07,9.75-2.02c1.36-1.02,2.42-2.38,3.34-3.81.53-.82,1.01-1.67,1.45-2.54.47-.94.7-1.88,1.76-2.27,2.7-1.01,4.79-2.96,5.85-5.67,2.61-6.66-3.24-12.34-8.28-15.76-5.64-3.83-12.43-5.91-19.23-6.11-7.16-.21-14.44,1.5-19.69,6.59-2.68,2.6-5.08,5.6-7.27,8.62s-3.93,6.5-5.02,10.15c-2.19,7.36-1.9,15.25.08,22.62,1.03,3.84,2.51,7.58,4.32,11.12.8,1.56,1.72,3.12,3.03,4.31,1.39,1.25,3.1,2.03,4.77,2.84,1.91.93,3.81,1.98,5.78,2.78,1.38.56,2.85.55,3.85-.68,2.39-2.93-.19-7.01-.49-10.17-.37-3.87,1.11-7.49,3.81-10.23,2.53-2.56,5.09-4.73,6.32-8.23.6-1.69.84-3.48.78-5.27-.03-.96-1.53-.97-1.5,0,.12,3.63-1.2,6.96-3.7,9.57-2.23,2.33-4.71,4.24-6.05,7.27-1.15,2.59-1.5,5.49-.97,8.27.34,1.77,1.14,3.47,1.25,5.29.05.79-.02,1.7-.47,2.38-.93,1.41-2.61.29-3.72-.25-1.6-.77-3.19-1.55-4.79-2.32-1.73-.84-3.44-1.7-4.69-3.2-2.22-2.65-3.55-6.32-4.72-9.53-2.47-6.8-3.62-14.17-2.52-21.37.5-3.29,1.45-6.54,2.9-9.54,1.58-3.28,3.81-6.13,6.11-8.92,2.1-2.54,4.29-5.12,7.06-6.95s6.36-2.84,9.76-3.31c6.11-.85,12.45-.01,18.15,2.33,2.96,1.21,5.77,2.86,8.26,4.88s5.09,4.56,5.84,7.8-.76,6.6-3.42,8.4c-1.09.73-2.66.86-3.48,1.95-.55.74-.85,1.69-1.28,2.5-.48.9-1,1.77-1.58,2.61-1.12,1.6-2.5,3-4.34,3.74-1.7.68-3.56.82-5.36.77-3.75-.1-7.89-.67-11.01-2.88-.79-.56-1.54.74-.76,1.3h0Z" style="stroke-width:0px;"/><path d="M56.26,392.41c3.13-3.39,9.04-3.16,13.04-2.17,1.77.44,3.45.64,4.93,1.57,2.34,1.48,4.47,4.28,6.48,6.21,3.4,3.26,10.31,2.21,11.28-2.98,1.51-8.11-5.55-14.77-13.66-11.47-6.76,2.75-10.21,12.1-9.15,18.87.36,2.29,2.65,4.09,4.71,4.71,5.17,1.56,9.52-1.85,11.78-6.26l-11.66-6.81c-.77,1.52-1.94,2.82-2.7,4.29.51-.99,3.18.25-.34-.93-3.03-1.01-6.05-2.09-9.07-3.13l1.61,12.34c3.06-1.38,6.1-1.33,8.8-3.6,2.34-1.96,4.04-4.75,4.13-7.89.19-6.67-6.16-10.35-12.11-9.87-10.96.89-27.43,10.7-17.71,22.88,2.12,2.66,7.43,2.61,9.55,0,2.63-3.25,4.16-6.85,3.25-11.11-.42-1.98-1.26-3.75-2.57-5.29-.59-.81-1.31-1.47-2.18-1.99-2.17-2.07-2.76-.53-1.76,4.61,5.9-5.23-1.63-14.14-8.18-10.6-8.5,4.59-9.87,11.33-11.18,20.29-1.09,7.44-3.31,16.28-.25,23.46,2.72,6.38,10.24,13.37,15.9,5.6,2.09-2.88,3.64-6.45,5.14-9.67.97-2.09,1.85-4.23,2.69-6.38.3-.87.63-1.73.98-2.58,1.18-1.33.67-1.8-1.54-1.41l-4.03-3.1c.76-3.08.25-3.69-1.53-1.81-.76.53-1.51,1.06-2.27,1.59-1.76,1.24-3.52,2.48-5.29,3.72l9.24,9.24c3.06-4.29,2.34-9.74,0-14.2-1.19-2.25-2.9-3.7-2.32-6.37.53-2.42,2.15-5.2,3.44-7.3,6.37-10.35,20.22-2.39,29.21-.59s11.75-10.04,3.59-13.02c-3.06-1.11-6.14-1.87-9.36-2.32-2.7-.38-4.48-.32-6.34-2.43l-4.77,11.52c4.48.48,8.87,1.51,13.14,2.98,1.97.68,3.86,1.66,5.84,2.29,1.09.47,2.22.74,3.4.79,2.27.34,2.39.33.35-.03l-3.34-5.83c-.12-1.51-1,1.28-2.2,1.77-1.03.42-3.3-.1-4.32-.16-4.14-.25-7.75.26-11.6,1.87-6.53,2.74-13.84,7.07-16.65,13.85-1.44,3.48-2.85,6.43-5.01,9.52s-4.36,6.44-5.36,10.22c-1.81,6.85.67,13.82,6.66,17.62l1.61-12.34c-7.83,1.46-8.78-12.81-9.08-17.58-.43-6.98.46-14.33,5.51-19.58s12.51-7.22,19.55-7.42c6.79-.2,18.82-.66,20.71,7.65s14.94,4.88,13.02-3.59c-3.3-14.55-18.1-17.3-30.98-17.56-12.46-.25-25.66,3.59-33.76,13.57-13.15,16.21-10.79,63.03,18.61,57.53,6.02-1.13,6.16-9.46,1.61-12.34-2.45-1.55,2.05-7.25,3.06-8.7,1.41-2.02,2.9-3.99,4.01-6.19.98-1.95,1.34-4.59,2.56-6.37,2-2.9,8.05-6.05,11.46-6.63,5.07-.88,9.6,1.02,14.55-1.44,6.36-3.16,14.45-14.54,5.76-19.81-1.83-1.11-3.75-1-5.73-1.56-2.56-.72-4.99-2.03-7.53-2.86-5.16-1.69-10.48-2.59-15.87-3.17-6.31-.68-8.23,7.58-4.77,11.52,5.7,6.5,14.13,5.49,21.65,8.23l3.59-13.02c-13.24-2.64-27.73-9.99-39.56.69-4.63,4.18-7.91,10.72-9.7,16.63-1.07,3.53-1.14,6.98.18,10.44.58,1.53,1.39,2.89,2.24,4.28.44.67.86,1.35,1.26,2.05.47,1,.47,1.19,0,.57-3.87,5.43,3.81,13.05,9.24,9.24,4.73-3.33,11.68-6.63,14.34-11.98,2.37-4.76.77-11.94-5.01-13.17-6.24-1.32-11.43,3.89-13.76,9.07-2.6,5.76-4.46,12.08-8.21,17.26l4.03-3.1-.5.19,6.57,1.74c-4.11-3.27-1.97-10.48-1.43-14.83.37-2.96.83-5.92,1.37-8.86.63-3.43.83-4.33,3.96-6.02l-8.18-10.6c-2.57,2.28-3.53,5.89-2.5,9.19.43,1.39,1.29,2.82,2.27,3.89.78.68,1.59,1.33,2.42,1.94,1.38,1.31,1.73.9,1.06-1.24h9.55c-.55,3.11-.17,4.15,1.15,3.13.64-.4,1.29-.76,1.97-1.09,1.45-.7,3.04-.94,4.47-1.6l1.58-.37c.26-4.87-1.07-6.7-3.98-5.48-1.58.09-3.27,1.15-4.67,1.78-5.73,2.59-3.33,10.63,1.61,12.34s10.88,4.92,16.25,4.05,8.81-5.96,11.11-10.49c3.92-7.72-7.68-14.56-11.66-6.81-1.46,2.14-.31,2.16,3.47.06l4.71,4.71c.32,2.06.43.31.71-.9.11-.42.27-.83.48-1.21,1.26-2.22-.21-3.98-4.41-5.28,3.76-.99,7.52-1.99,11.28-2.98-3.11-2.98-6.24-6.93-10.04-9.04-3.07-1.7-7.08-2.35-10.46-3.04-7.44-1.51-17.75.75-23.03,6.46-5.89,6.37,3.63,15.94,9.55,9.55h0Z" style="stroke-width:0px;"/><path d="M87.2,402.24c2.34,6.27,3.41,13.39,10.76,14.89.6.08,1.21.16,1.82.22,3.32-.25,4.07,1.73,2.23,5.93-1.12,1.22-3.64,1.55-5,2.63-1.89,1.49-2.76,3.36-3.17,5.7-.59,3.43-.06,7.06-.37,10.53-.35,3.99-.75,7.08-5.29,8.04-2.94.62-6.29.19-9.22-.24-4.19-.61-8.3-1.69-12.37-2.82-4.52-1.25-9.89-2.2-12.92-6.13-1.16-1.51-3.77-.01-2.59,1.51,5.38,6.97,17.21,8.61,25.3,10.04,4.52.8,9.69,1.66,14.15.12,4.11-1.42,5.15-4.16,5.69-8.19.36-2.71.47-5.42.47-8.14.01-4.02.48-7,4.27-9.24,2.74-1.62,6.34-2.82,6.73-6.56.29-2.82-1.81-4.72-4.28-5.54-2.8-.92-5.25-.41-7.75-2.35-3.14-2.43-4.18-7.52-5.55-11.19-.67-1.79-3.57-1.02-2.89.8h0Z" style="stroke-width:0px;"/><path d="M87.04,419.24c3.54,0,3.54-5.5,0-5.5s-3.54,5.5,0,5.5h0Z" style="stroke-width:0px;"/><path d="M94.37,433.7c-3.64.28-9.78,2.22-10.39,6.55-.77,5.48,6.41,6.19,10.12,6.87,1.89.35,2.7-2.54.8-2.89s-8.07-.59-7.98-3.4c.04-1.33,2.11-2.42,3.11-2.94,1.36-.7,2.83-1.07,4.35-1.18,1.91-.15,1.93-3.15,0-3h0Z" style="stroke-width:0px;"/><path d="M107.94,459.81c-1.79-5.29-2.98-10.76-3.06-16.37-.05-3.22.34-6.46,2.31-9.1,1.3-1.74,4.94-4.86,7.3-4.95,4.92-.2,7.29,8.79,7.9,12.33.98,5.62.02,11.29-2.54,16.36-.87,1.72,1.72,3.24,2.59,1.51,3.17-6.27,4.14-13.26,2.54-20.14-.97-4.16-3.99-13.25-9.27-13.35s-10.98,5.07-12.72,9.54c-2.96,7.6-.44,17.61,2.06,24.98.62,1.82,3.51,1.04,2.89-.8h0Z" style="stroke-width:0px;"/><path d="M115.26,425.87c14.18,5.44,29.33,5.83,44.33,6.02l-1.5-1.5c-.28,11.89-.55,23.79-.83,35.68-.03,1.3.37,5.35-.53,5.9-.48.3-2.58-.29-3.13-.36-5.23-.64-10.44-1.35-15.66-2.06-1.89-.26-2.7,2.63-.8,2.89,5.65.77,11.29,1.55,16.95,2.23,1.96.24,4.26.89,5.6-.96s.52-5.57.57-7.65c.09-3.96.18-7.93.28-11.89.18-7.93.37-15.86.55-23.79.02-.82-.7-1.49-1.5-1.5-14.75-.19-29.59-.57-43.53-5.92-1.8-.69-2.58,2.21-.8,2.89h0Z" style="stroke-width:0px;"/><path d="M91.61,493.99c4.4-11.09,9.88-21.72,16.19-31.84,1.12-1.79,6.88-12.13,9.38-9.69,1.34,1.31.74,7.6.67,9.34-.14,3.28-.78,6.43-1.78,9.54l2.89.8c.33-1.93,3.71-15.63,5.63-15.14.88.23.69,6.2.64,7.12-.17,3.63-1,7.1-2.46,10.43l2.74,1.16c1.27-4.55,2.36-9.09,2.99-13.78.23-1.7.38-6.85,5.04-2.58.87.8,1.29,3.33,1.58,4.43.76,2.88,1.05,5.87,1.07,8.85.04,6.98-1.46,13.82-3.65,20.4-1.91,5.74-4.46,11.25-7.53,16.45-.64,1.09-1.57,2.22-2.05,3.37-.18.44-.03,1.34-.32,1.68,0,1.24-.76,1.68-2.25,1.33-1.13.76-2.03.68-2.69-.24-.65-.32-1.31-1.19-1.83-1.67-8.08-7.29-16.39-14.32-24.63-21.42-1.46-1.25-3.59.86-2.12,2.12,6.61,5.69,13.23,11.37,19.78,17.12,2.81,2.47,7.49,8.57,11.54,8.74,2.1.09,3.45-1.1,4.35-2.9,1.13-2.25,1.49-4.36,2.81-6.63,3.77-6.47,6.75-13.31,8.86-20.49,2.88-9.79,4.39-21.29.42-30.99-1.72-4.19-5.71-7.57-9.6-3.06-1.73,2.01-1.61,4.52-1.97,6.98-.57,3.88-1.63,7.69-2.69,11.47-.44,1.58,2.04,2.75,2.74,1.16,1.86-4.24,2.91-8.65,2.89-13.3,0-2.25.19-7.39-2.17-8.79-5.63-3.35-9.51,14.42-10.02,17.37-.32,1.88,2.29,2.67,2.89.8,1.18-3.66,1.84-7.4,1.9-11.25.05-2.99.35-7.6-1.23-10.33-2.29-3.93-5.96-1.16-8.18,1.3-4.38,4.85-7.6,10.88-10.82,16.53-4.55,7.99-8.51,16.27-11.9,24.81-.71,1.79,2.19,2.57,2.89.8Z" style="stroke-width:0px;"/><path d="M95.78,448.73c2.59.61,5.17,1.23,7.76,1.84,1.88.44,2.68-2.45.8-2.89-2.59-.61-5.17-1.23-7.76-1.84-1.88-.44-2.68,2.45-.8,2.89h0Z" style="stroke-width:0px;"/><path d="M44.87,441.97c-11.09.02-18.64,8.03-24.98,16.22-7.24,9.35-14.42,18.85-18.02,30.26-.58,1.85,2.31,2.64,2.89.8,3.01-9.52,8.65-17.64,14.63-25.52,6.44-8.47,13.69-18.74,25.48-18.76,1.93,0,1.93-3,0-3h0Z" style="stroke-width:0px;"/><path d="M30.04,450.62c1.14,4.46,4.06,7.5,7.73,10.14,4.87,3.51,10.58,7.17,16.26,9.19,3.99,1.42,8.18,1.79,11.1-1.71,1.73-2.07,2.89-4.71,4.12-7.08,1.43-2.76,3.44-8.19,6.27-9.69l-2.05-.54.03-1.03c-1.17,1.53,1.43,3.03,2.59,1.51l.17-.22c.29-.38.28-1.13,0-1.51l-.2-.27c-.5-.67-1.27-.95-2.05-.54-7.57,4.03-6.52,20.29-17.52,18.71-4.44-.64-9.35-4.44-13.11-6.77-4.44-2.75-9.06-5.62-10.43-11-.48-1.87-3.37-1.08-2.89.8h0Z" style="stroke-width:0px;"/><path d="M62.15,470.59c11.85,3.32,23.98,4.78,36.28,4.12,1.92-.1,1.93-3.1,0-3-12.04.65-23.88-.76-35.48-4.01-1.86-.52-2.66,2.37-.8,2.89h0Z" style="stroke-width:0px;"/><path d="M92.45,449.8c1.69,8.48,3.39,16.97,5.08,25.45.38,1.89,3.27,1.09,2.89-.8-1.69-8.48-3.39-16.97-5.08-25.45-.38-1.89-3.27-1.09-2.89.8h0Z" style="stroke-width:0px;"/><path d="M66.92,470.69c-.93,26.2-9.15,51.51-23.73,73.3-1.08,1.61,1.52,3.11,2.59,1.51,14.87-22.22,23.19-48.1,24.14-74.81.07-1.93-2.93-1.93-3,0h0Z" style="stroke-width:0px;"/><path d="M88.76,494.57c-8.65,18.09-21.09,33.86-36.66,46.48-1.5,1.22.63,3.33,2.12,2.12,15.75-12.77,28.38-28.8,37.13-47.09.83-1.73-1.76-3.26-2.59-1.51h0Z" style="stroke-width:0px;"/><path d="M107.6,508.81c-7.32,13.27-15.79,25.79-25.43,37.49-1.22,1.48.89,3.61,2.12,2.12,9.8-11.89,18.46-24.6,25.9-38.09.93-1.69-1.66-3.21-2.59-1.51h0Z" style="stroke-width:0px;"/><path d="M74.52,520.78c13.92,8.1,29.55,11.78,45.56,9.04,1.9-.32,1.09-3.22-.8-2.89-15.2,2.6-30.06-1.06-43.25-8.74-1.67-.97-3.18,1.62-1.51,2.59h0Z" style="stroke-width:0px;"/><path d="M121.81,516.3c-2.49,13.01-7.53,25.13-15,36.08-1.09,1.6,1.51,3.1,2.59,1.51,7.61-11.14,12.77-23.54,15.3-36.79.36-1.89-2.53-2.69-2.89-.8h0Z" style="stroke-width:0px;"/><path d="M81.94,507.32c-25.02-12.35-52.6-18.54-80.5-17.98-1.93.04-1.93,3.04,0,3,27.36-.55,54.44,5.45,78.98,17.57,1.73.85,3.25-1.73,1.51-2.59h0Z" style="stroke-width:0px;"/><path d="M39.82,493.94c-9.39,19.45-18.79,38.91-28.18,58.36-.84,1.73,1.75,3.25,2.59,1.51,9.39-19.45,18.79-38.91,28.18-58.36.84-1.73-1.75-3.25-2.59-1.51h0Z" style="stroke-width:0px;"/><path d="M1008.76,35.27c-2.83,2.01-6.39,2.57-9.78,2.82s-7.02-.11-9.55-2.73c-1.11-1.15-1.98-2.54-2.76-3.93-.64-1.15-1.04-2.88-2.26-3.58s-2.52-.96-3.63-1.98-1.89-2.26-2.32-3.66c-2.02-6.41,4.79-11.72,9.6-14.55,5.43-3.2,11.74-4.84,18.04-4.79,3.09.03,6.17.46,9.14,1.34,3.58,1.06,6.46,3.05,9.03,5.73,4.78,4.99,9.12,10.69,11.07,17.41s1.78,13.95.09,20.75c-.9,3.6-2.2,7.1-3.81,10.44-.71,1.48-1.45,3.01-2.51,4.28-1.25,1.5-2.97,2.36-4.69,3.2-1.88.92-3.75,1.88-5.66,2.75-1.23.55-2.5.87-3.1-.67-.41-1.08-.24-2.28.02-3.37.4-1.73,1.03-3.38,1.2-5.16s-.03-3.57-.54-5.25c-1.03-3.4-3.32-5.65-5.79-8.05-2.94-2.85-4.72-6.27-4.58-10.44.03-.97-1.47-.96-1.5,0-.12,3.54,1.03,6.99,3.31,9.71,2.42,2.9,5.62,4.9,6.93,8.62.61,1.73.85,3.58.67,5.41-.19,2-1.06,3.84-1.35,5.82-.45,3.07,1.17,6.46,4.71,5.03,1.97-.8,3.87-1.85,5.78-2.78,1.66-.81,3.38-1.59,4.77-2.84,2.69-2.42,4.13-6.34,5.42-9.63,2.88-7.29,4.25-15.22,3.17-23.02-.5-3.65-1.54-7.21-3.14-10.53-1.7-3.52-4.14-6.56-6.62-9.55-2.32-2.8-4.81-5.57-7.98-7.42s-6.82-2.65-10.39-3.06c-6.72-.76-13.63.44-19.73,3.33-3.07,1.46-5.93,3.37-8.43,5.68s-4.57,4.96-4.95,8.29c-.33,2.9.87,5.91,2.96,7.92,1.01.97,2.18,1.62,3.49,2.11,1.01.38,1.21,1.17,1.66,2.07s.98,1.86,1.55,2.74c1.91,2.97,4.43,5.13,7.99,5.71,3.37.55,7.1.13,10.4-.71,1.73-.44,3.37-1.13,4.83-2.16.78-.55.03-1.86-.76-1.3h0Z" style="stroke-width:0px;"/><path d="M1023.47,10.39c-5.26-5.69-15.61-7.96-23.03-6.46-3.33.67-7.46,1.33-10.46,3.04-3.8,2.16-6.92,6.04-10.04,9.04,3.76.99,7.52,1.99,11.28,2.98l-4.66,4.75c.32.55.56,1.13.73,1.74.17.9.34,3.27.71.9l4.71-4.71c3.77,2.11,4.93,2.09,3.47-.06-3.97-7.74-15.58-.92-11.66,6.81,2.31,4.54,5.73,9.62,11.11,10.49s11.29-2.34,16.25-4.05,7.33-9.75,1.61-12.34c-1.37-.62-3.14-1.65-4.67-1.78-1.89-.99-2.82-.13-2.8,2.56-2.02,2.21-1.89,3.31.4,3.29,1.11.81,3.2.99,4.47,1.6l1.44.76c1.64,1.45,2.2.51,1.69-2.8h9.55c-.67,2.14-.31,2.56,1.06,1.24.83-.61,1.64-1.26,2.42-1.94,1-1.09,1.84-2.48,2.27-3.89,1.02-3.3.07-6.91-2.5-9.19l-8.18,10.6c2.61,1.41,3.22,2.26,3.8,5.14.65,3.22,1.13,6.49,1.53,9.74.54,4.36,2.68,11.56-1.43,14.83l6.57-1.74-.5-.19,4.03,3.1c-5.61-7.76-8.4-29.15-21.97-26.33-5.5,1.14-7.13,7.66-5.35,12.36,2.23,5.86,9.83,9.38,14.68,12.79,5.42,3.81,13.11-3.81,9.24-9.24-.46.62-.46.43,0-.57l.82-1.37c.77-1.41,1.69-2.67,2.33-4.15,1.45-3.34,1.74-6.8.81-10.36-1.59-6.16-5.25-13.24-9.99-17.52-11.82-10.68-26.32-3.33-39.56-.69l3.59,13.02c7.52-2.74,15.96-1.73,21.65-8.23,3.43-3.92,1.53-12.2-4.77-11.52-5.09.55-10.12,1.37-15.01,2.9-2.58.81-5,1.99-7.55,2.85-2.04.68-4.22.57-6.15,1.55-9.48,4.83-.99,16.95,5.35,20.09,4.73,2.34,8.9.7,13.8,1.28,3.57.43,9.55,3.48,11.77,6.32,1.32,1.69,1.75,4.14,2.67,6.09,1.06,2.26,2.44,4.24,3.87,6.27,1.09,1.56,6.15,7.71,3.54,9.37-4.52,2.86-4.41,11.21,1.61,12.34,29.43,5.5,31.74-41.31,18.61-57.53C1028.76,3.85,1015.95-.05,1003.8,0c-13.08.05-28.53,2.76-31.89,17.58-1.92,8.46,11.09,12.07,13.02,3.59,1.89-8.33,13.91-7.86,20.71-7.65s14.52,2.2,19.55,7.42c5.04,5.23,5.95,12.61,5.51,19.58-.3,4.82-1.26,19.04-9.08,17.58l1.61,12.34c6-3.8,8.47-10.77,6.66-17.62-1-3.79-3.15-7.05-5.36-10.22s-3.57-6.04-5.01-9.52c-2.82-6.81-10.1-11.11-16.65-13.85-3.82-1.6-7.45-2.11-11.6-1.87-1.02.06-3.29.58-4.32.16-1.2-.49-2.08-3.29-2.2-1.77l-3.34,5.83c-2.04.36-1.92.37.35.03,1.18-.06,2.32-.32,3.4-.79,1.98-.63,3.87-1.61,5.84-2.29,4.26-1.46,8.66-2.5,13.14-2.98l-4.77-11.52c-1.83,2.09-3.69,2.06-6.34,2.43-3.24.46-6.29,1.21-9.36,2.32-8.15,2.97-4.99,14.73,3.59,13.02s22.84-9.75,29.21.59c1.22,1.97,2.43,4.19,3.15,6.41,1.08,3.35-.5,4.35-2.03,7.26-2.35,4.46-3.08,9.9,0,14.2l9.24-9.24c-1.76-1.24-3.52-2.48-5.29-3.72-.76-.53-1.51-1.06-2.27-1.59-1.79-1.87-2.3-1.27-1.53,1.81l-4.03,3.1c-2.2-.39-2.72.08-1.54,1.41.35.85.68,1.71.98,2.58.74,1.88,1.5,3.75,2.34,5.59,1.57,3.47,3.24,7.37,5.5,10.46,5.7,7.81,13.18.77,15.9-5.6,3.06-7.19.85-16.01-.25-23.46-1.31-8.92-2.69-15.7-11.18-20.29-6.49-3.51-14.13,5.32-8.18,10.6,1-5.14.41-6.68-1.76-4.61-.86.52-1.59,1.18-2.18,1.99-1.31,1.55-2.15,3.31-2.57,5.29-.9,4.26.62,7.87,3.25,11.11,2.13,2.62,7.44,2.64,9.55,0,9.71-12.17-6.75-21.99-17.71-22.88-6-.49-12.23,3.2-12.11,9.87.06,3.12,1.81,5.94,4.13,7.89,2.7,2.27,5.74,2.22,8.8,3.6.54-4.11,1.07-8.22,1.61-12.34-3.02,1.04-6.04,2.12-9.07,3.13-.5.18-1,.35-1.51.5-1.29.3-.9.44,1.17.43-.13-1.07-2.18-3.28-2.7-4.29l-11.66,6.81c2.26,4.41,6.6,7.82,11.78,6.26,2.07-.62,4.36-2.43,4.71-4.71,1.06-6.78-2.39-16.12-9.15-18.87-8.09-3.29-15.18,3.34-13.66,11.47.97,5.19,7.88,6.24,11.28,2.98,1.93-1.85,3.77-3.89,5.83-5.59,1.79-1.48,3.24-1.62,5.57-2.19,4.03-1,9.9-1.23,13.04,2.17,5.91,6.39,15.44-3.17,9.55-9.55h0Z" style="stroke-width:0px;"/><path d="M980.09,28.97c-1.14,3.05-1.98,7.18-3.82,9.85-2.48,3.6-5.52,2.57-8.89,3.5-2.61.72-5.08,2.53-4.9,5.53.23,3.79,3.98,5.21,6.76,6.76,6.18,3.47,3.94,11.38,4.74,17.38.54,4.04,1.57,6.78,5.69,8.19s8.99.72,13.25.02c5.71-.94,11.42-2.48,16.93-4.25,3.72-1.2,6.85-2.81,9.26-5.93,1.18-1.53-1.43-3.02-2.59-1.51-3.04,3.94-8.41,4.88-12.92,6.13-4.07,1.13-8.18,2.21-12.37,2.82-2.92.43-6.28.86-9.22.24-4.55-.96-4.93-4.04-5.29-8.04-.31-3.48.22-7.1-.37-10.53-.4-2.33-1.29-4.23-3.17-5.7-1.36-1.07-3.88-1.41-5-2.63-1.84-4.2-1.09-6.17,2.23-5.93.61-.06,1.21-.14,1.82-.22,7.34-1.5,8.43-8.63,10.76-14.89.68-1.81-2.22-2.59-2.89-.8h0Z" style="stroke-width:0px;"/><path d="M983.14,46.77c3.54,0,3.54-5.5,0-5.5s-3.54,5.5,0,5.5h0Z" style="stroke-width:0px;"/><path d="M975.81,64.22c1.52.12,3,.48,4.35,1.18,1.03.53,3.07,1.58,3.11,2.94.09,2.79-6.11,3.06-7.98,3.4s-1.09,3.24.8,2.89c3.72-.68,10.88-1.39,10.12-6.87-.6-4.33-6.76-6.27-10.39-6.55-1.93-.15-1.92,2.85,0,3h0Z" style="stroke-width:0px;"/><path d="M965.14,88.13c2.5-7.37,5.01-17.38,2.06-24.98-1.74-4.47-7.66-9.64-12.72-9.54s-8.31,9.2-9.27,13.35c-1.6,6.88-.63,13.87,2.54,20.14.87,1.72,3.46.21,2.59-1.51-2.38-4.71-3.33-9.81-2.7-15.06.45-3.72,2.75-13.97,8.06-13.63,6.23.4,9.52,8.12,9.63,13.21.13,5.85-1.21,11.71-3.08,17.21-.62,1.83,2.28,2.62,2.89.8h0Z" style="stroke-width:0px;"/><path d="M954.13,50.5c-13.94,5.35-28.79,5.73-43.53,5.92-.8.01-1.52.68-1.5,1.5.18,7.93.37,15.86.55,23.79.08,3.63.17,7.27.25,10.9.05,2.14-.75,6.67.59,8.64s3.68,1.19,5.6.96c5.66-.68,11.3-1.46,16.95-2.23,1.9-.26,1.09-3.15-.8-2.89-5.05.69-10.1,1.38-15.17,2-.67.08-2.8.7-3.4.4-1.16-.59-.72-4.35-.75-5.88-.28-11.89-.55-23.79-.83-35.68l-1.5,1.5c15-.19,30.15-.58,44.33-6.02,1.78-.68,1.01-3.59-.8-2.89h0Z" style="stroke-width:0px;"/><path d="M981.47,120.72c-3.27-8.24-7.06-16.25-11.42-23.96-3.36-5.93-6.71-12.29-11.3-17.37-2.15-2.37-5.75-5.2-8.11-1.48-1.56,2.47-1.32,6.87-1.32,9.6,0,4.17.63,8.19,1.9,12.16.6,1.86,3.22,1.08,2.89-.8-.5-2.88-4.47-20.85-10.02-17.37-2.33,1.46-2.16,6.54-2.17,8.79-.02,4.65,1.03,9.06,2.89,13.3.69,1.58,3.19.45,2.74-1.16-1.05-3.77-2.11-7.58-2.69-11.47-.36-2.47-.25-4.98-1.97-6.98-3.88-4.51-7.88-1.13-9.6,3.06-3.98,9.7-2.46,21.19.42,30.99,2.11,7.18,5.09,14.02,8.86,20.49,1.33,2.28,1.68,4.38,2.81,6.63.9,1.8,2.26,2.98,4.35,2.9,4.06-.17,8.73-6.27,11.54-8.74,6.56-5.75,13.17-11.43,19.78-17.12,1.47-1.26-.66-3.38-2.12-2.12-8.24,7.1-16.55,14.14-24.63,21.42-1.64,1.48-4.66,4.93-6.66,1.06-.31-.59-.14-1.37-.36-1.98-.44-1.21-1.49-2.47-2.13-3.55-3.08-5.2-5.62-10.72-7.53-16.45-2.19-6.59-3.7-13.43-3.65-20.4.02-2.73.25-5.48.89-8.14.23-.95,1.08-4.75,1.76-5.14l4.75.46c.13.56.21,1.13.25,1.7.57,1.39.46,3.51.74,4.99.61,3.11,1.43,6.16,2.29,9.21l2.74-1.16c-1.37-3.12-2.22-6.37-2.43-9.78-.07-1.09-.49-7.32.61-7.77,1.52-.62,5.33,13.41,5.63,15.14l2.89-.8c-1-3.11-1.64-6.27-1.78-9.54-.07-1.61-.59-8.39.67-9.34,2.83-2.15,8.12,7.67,9.38,9.69,6.3,10.13,11.79,20.76,16.19,31.84.7,1.77,3.61,1,2.89-.8Z" style="stroke-width:0px;"/><path d="M973.61,73.36l-7.76,1.84c-1.88.45-1.08,3.34.8,2.89l7.76-1.84c1.88-.45,1.08-3.34-.8-2.89h0Z" style="stroke-width:0px;"/><path d="M1025.32,72.5c11.79.02,19.04,10.28,25.48,18.76,5.98,7.87,11.63,16,14.63,25.52.58,1.83,3.48,1.05,2.89-.8-3.6-11.41-10.79-20.91-18.02-30.26-6.34-8.19-13.89-16.2-24.98-16.22-1.93,0-1.93,3,0,3h0Z" style="stroke-width:0px;"/><path d="M1037.25,77.34c-1.37,5.37-5.99,8.25-10.43,11-3.75,2.32-8.67,6.13-13.11,6.77-11,1.58-9.95-14.69-17.52-18.71-.77-.41-1.55-.14-2.05.54l-.2.27c-.28.38-.29,1.13,0,1.51l.17.22c1.16,1.51,3.76.02,2.59-1.51l.03,1.03-2.05.54c2.91,1.55,4.81,6.9,6.27,9.69,1.21,2.32,2.35,4.88,4,6.93,2.93,3.63,7.09,3.36,11.22,1.87,5.49-1.99,10.84-5.46,15.62-8.76,3.92-2.71,7.15-5.85,8.36-10.57.48-1.87-2.42-2.67-2.89-.8h0Z" style="stroke-width:0px;"/><path d="M1007.24,95.22c-11.6,3.25-23.44,4.66-35.48,4.01-1.93-.1-1.92,2.9,0,3,12.3.66,24.43-.79,36.28-4.12,1.86-.52,1.07-3.42-.8-2.89h0Z" style="stroke-width:0px;"/><path d="M974.84,76.53c-1.69,8.48-3.39,16.97-5.08,25.45-.38,1.89,2.51,2.69,2.89.8,1.69-8.48,3.39-16.97,5.08-25.45.38-1.89-2.51-2.69-2.89-.8h0Z" style="stroke-width:0px;"/><path d="M1000.26,98.22c.95,26.71,9.27,52.6,24.14,74.81,1.07,1.6,3.67.1,2.59-1.51-14.58-21.79-22.8-47.09-23.73-73.3-.07-1.93-3.07-1.93-3,0h0Z" style="stroke-width:0px;"/><path d="M978.83,123.61c8.75,18.29,21.38,34.32,37.13,47.09,1.49,1.21,3.62-.9,2.12-2.12-15.57-12.62-28.01-28.4-36.66-46.48-.83-1.74-3.42-.22-2.59,1.51h0Z" style="stroke-width:0px;"/><path d="M959.99,137.85c7.44,13.49,16.1,26.2,25.9,38.09,1.23,1.49,3.34-.64,2.12-2.12-9.64-11.69-18.11-24.22-25.43-37.49-.93-1.69-3.52-.18-2.59,1.51h0Z" style="stroke-width:0px;"/><path d="M994.14,145.72c-13.19,7.68-28.04,11.34-43.25,8.74-1.89-.32-2.7,2.57-.8,2.89,16.01,2.74,31.64-.94,45.56-9.04,1.67-.97.16-3.56-1.51-2.59h0Z" style="stroke-width:0px;"/><path d="M945.48,144.62c2.53,13.25,7.69,25.65,15.3,36.79,1.08,1.58,3.68.09,2.59-1.51-7.47-10.94-12.51-23.06-15-36.08-.36-1.89-3.25-1.09-2.89.8h0Z" style="stroke-width:0px;"/><path d="M989.75,137.43c24.54-12.12,51.62-18.12,78.98-17.57,1.93.04,1.93-2.96,0-3-27.9-.56-55.48,5.63-80.5,17.98-1.73.85-.21,3.44,1.51,2.59h0Z" style="stroke-width:0px;"/><path d="M1027.77,122.98c9.39,19.45,18.79,38.91,28.18,58.36.84,1.74,3.43.22,2.59-1.51-9.39-19.45-18.79-38.91-28.18-58.36-.84-1.74-3.43-.22-2.59,1.51h0Z" style="stroke-width:0px;"/><path d="M158.72,452.5c15.68-2.61,31.98,10.11,47.26,2.43,10.05-5.05,13.59-20.92,1.67-26.17-8.76-3.85-19.33,6.06-13.4,14.67,4.07,5.91,14.44,7.87,20.81,9.64,7.28,2.02,15.76,4.51,23.22,1.96,15.36-5.25,22.44-24.3,27.83-37.97.71-1.8-2.19-2.58-2.89-.8-4.83,12.25-10.48,27.39-22.55,34.36-7.45,4.3-16.11,1.9-23.89-.2-5.87-1.59-20.16-4.09-21.02-11.44-1.22-10.33,13.45-10.15,16.15-1.47,2.87,9.24-6.44,15.97-14.52,16.68-13.51,1.19-25.84-6.86-39.46-4.6-1.9.32-1.09,3.21.8,2.89h0Z" style="stroke-width:0px;"/><path d="M915.23,67.61c-15.22,4.3-32.43-6.16-46.85,2.5-9.59,5.76-12.07,21.61-.1,26.26,9.57,3.72,19.94-8.16,12.07-16.2-4.91-5.02-14.65-5.76-21.18-6.82-7.25-1.17-15.56-2.7-22.59.19-15.24,6.25-20.45,26.87-24.29,41.04-.51,1.87,2.39,2.66,2.89.8,3.43-12.64,7.16-27.12,17.59-35.96,6.79-5.75,15.53-4.67,23.72-3.47,5.96.87,20.53,1.86,23.01,8.38,1.4,3.68-.77,8.02-4.36,9.39-4.49,1.72-9.46-1.28-11.24-5.42-3.6-8.35,3.86-15.89,11.44-17.81,13.5-3.41,27.12,3.83,40.68,0,1.85-.52,1.07-3.42-.8-2.89h0Z" style="stroke-width:0px;"/><path d="M321.24,429.17c-6.52,3.85-10.55,12.45-6.19,19.43,3.95,6.32,12.37,7.11,18.55,3.69,6.45-3.57,11.05-12.64,6.52-19.37-4.12-6.11-12.72-6.58-18.88-3.75-2.63,1.21-.34,5.09,2.27,3.89,3.64-1.67,9.04-1.71,12.04,1.37,4.36,4.47.35,11.44-4.22,13.98-3.76,2.1-9.03,2.1-11.87-1.45-3.87-4.82-.61-11.15,4.06-13.9,2.49-1.47.23-5.36-2.27-3.89Z" style="stroke-width:0px;"/><path d="M323.76,458.87c2,6.29,3.17,12.69,3.48,19.28.13,2.88,4.64,2.9,4.5,0-.33-6.99-1.52-13.81-3.64-20.48-.87-2.75-5.22-1.58-4.34,1.2h0Z" style="stroke-width:0px;"/><path d="M341.4,458.43v13.65c0,2.9,4.5,2.9,4.5,0v-13.65c0-2.9-4.5-2.9-4.5,0h0Z" style="stroke-width:0px;"/><path d="M313.33,483.51c15.43-.03,30.79-1.15,46.07-3.27,2.86-.4,1.64-4.73-1.2-4.34-14.88,2.06-29.86,3.07-44.88,3.11-2.9,0-2.9,4.51,0,4.5h0Z" style="stroke-width:0px;"/><path d="M365.83,417.81c-1.82,3.99-2.34,8.08-1.55,12.4.52,2.84,4.86,1.64,4.34-1.2-.56-3.03-.19-6.13,1.09-8.93,1.19-2.62-2.68-4.9-3.89-2.27h0Z" style="stroke-width:0px;"/><path d="M357.07,438.45c4.51-.53,9.03-1.05,13.53-1.64,1.91-.25,3.2-1.04,3.1,1.76-.05,1.32-.8,2.9-1.25,4.11-2.17,5.93-5.09,11.63-8,17.22-1.34,2.57,2.55,4.84,3.89,2.27,3.67-7.06,8.36-14.88,9.78-22.79.57-3.2-.05-6.76-3.79-7.36-1.93-.31-4.16.34-6.06.59-3.73.48-7.47.9-11.2,1.34-2.84.33-2.88,4.84,0,4.5h0Z" style="stroke-width:0px;"/><path d="M372.46,451.58h16.68c2.9,0,2.9-4.5,0-4.5h-16.68c-2.9,0-2.9,4.5,0,4.5h0Z" style="stroke-width:0px;"/><path d="M415.98,510.59c-.18,3.86-.37,7.71-.55,11.57-.14,2.89,4.36,2.89,4.5,0,.18-3.86.37-7.71.55-11.57.14-2.89-4.36-2.89-4.5,0h0Z" style="stroke-width:0px;"/><path d="M408.86,527.16c4.51-.53,9.03-1.05,13.53-1.64,1.91-.25,3.2-1.04,3.1,1.76-.05,1.32-.8,2.9-1.25,4.11-2.17,5.93-5.09,11.63-8,17.22-1.34,2.57,2.55,4.84,3.89,2.27,3.67-7.06,8.36-14.88,9.78-22.79.57-3.2-.05-6.76-3.79-7.36-1.93-.31-4.16.34-6.06.59-3.73.48-7.47.9-11.2,1.34-2.84.33-2.88,4.84,0,4.5h0Z" style="stroke-width:0px;"/><path d="M424.25,540.29c5.56,0,11.12,0,16.68,0,2.9,0,2.9-4.5,0-4.5-5.56,0-11.12,0-16.68,0-2.9,0-2.9,4.5,0,4.5h0Z" style="stroke-width:0px;"/><path d="M387.62,437.94c3.04-.38,6.08-.76,9.12-1.14,2.84-.35,2.87-4.86,0-4.5-3.04.38-6.08.76-9.12,1.14-2.84.35-2.87,4.86,0,4.5h0Z" style="stroke-width:0px;"/><path d="M397.98,416.96c-1.7,12.18-1.23,24.28,1.51,36.27.64,2.82,4.98,1.63,4.34-1.2-2.55-11.16-3.09-22.54-1.51-33.88.39-2.83-3.94-4.06-4.34-1.2h0Z" style="stroke-width:0px;"/><path d="M385.06,491.1c5.2,2.96,11.52-.84,15.46-4.35,4.71-4.19,8.18-11.88,3.24-17.33-9.92-10.94-30.14,11.73-19.15,21.32,2.17,1.9,5.37-1.27,3.18-3.18-3.63-3.17-.73-9.39,1.98-12.08s9.33-7.4,11.51-1.49c1.57,4.25-2.04,8.23-5.17,10.6-2.17,1.64-6.07,4.16-8.77,2.62-2.52-1.44-4.79,2.45-2.27,3.89Z" style="stroke-width:0px;"/><path d="M427.82,420.53v16.68c0,2.9,4.5,2.9,4.5,0v-16.68c0-2.9-4.5-2.9-4.5,0h0Z" style="stroke-width:0px;"/><path d="M420.97,445.52c6.57,0,13.14,0,19.71,0,2.9,0,2.9-4.5,0-4.5-6.57,0-13.14,0-19.71,0-2.9,0-2.9,4.5,0,4.5h0Z" style="stroke-width:0px;"/><path d="M423.39,459.89c-4.12,3.23-5.38,9.54-2.34,13.93s9.29,5.36,13.73,2.58,5.78-8.83,3.34-13.43c-2.78-5.24-9.4-6.59-14.28-3.43-2.42,1.57-.17,5.47,2.27,3.89,2.91-1.89,6.8-1.32,8.26,2.08,1.15,2.69.26,5.92-2.39,7.31-2.5,1.32-5.91.68-7.42-1.82-1.66-2.76-.35-6.08,2-7.92s-.93-4.95-3.18-3.18Z" style="stroke-width:0px;"/><path d="M447.73,437.77c2.78,10.77,3.66,21.7,2.71,32.78-.25,2.88,4.25,2.87,4.5,0,.99-11.47,0-22.84-2.87-33.97-.72-2.8-5.06-1.61-4.34,1.2h0Z" style="stroke-width:0px;"/><path d="M456.51,459.29c4.51-1.63,9.02-3.26,13.52-4.89,2.7-.98,1.54-5.33-1.2-4.34-4.51,1.63-9.02,3.26-13.52,4.89-2.7.98-1.54,5.33,1.2,4.34h0Z" style="stroke-width:0px;"/><path d="M486.95,420.53v24.26c0,2.9,4.5,2.9,4.5,0v-24.26c0-2.9-4.5-2.9-4.5,0h0Z" style="stroke-width:0px;"/><path d="M493.77,437.71c3.77.46,7.38,1.96,10.37,4.3,2.25,1.77,5.46-1.4,3.18-3.18-4.03-3.15-8.47-5-13.55-5.62-2.87-.35-2.84,4.15,0,4.5h0Z" style="stroke-width:0px;"/><path d="M519.28,424.05c2.24,8.67,4.48,17.33,6.72,26,.72,2.8,5.07,1.61,4.34-1.2-2.24-8.67-4.48-17.33-6.72-26-.72-2.8-5.07-1.61-4.34,1.2h0Z" style="stroke-width:0px;"/><path d="M497.57,463.61c1.49,6.65-2.96,16.86,7,18.21,6.05.82,12.67.11,18.78.1,6.81-.01,13.62-.02,20.43-.03,2.9,0,2.9-4.5,0-4.5-10.05.02-20.11.03-30.16.05-4.84,0-11.68,1.37-11.53-5.42.07-3.29.55-6.35-.18-9.6-.63-2.82-4.97-1.63-4.34,1.2h0Z" style="stroke-width:0px;"/><path d="M557.41,433.26c11.66-.95,23.03-3.34,34.06-7.25,2.71-.96,1.54-5.31-1.2-4.34-10.65,3.77-21.6,6.17-32.87,7.09-2.87.23-2.89,4.74,0,4.5h0Z" style="stroke-width:0px;"/><path d="M571.69,431.15c.65,10.1,1.3,20.2,1.95,30.29.18,2.88,4.69,2.9,4.5,0-.65-10.1-1.3-20.2-1.95-30.29-.18-2.88-4.69-2.9-4.5,0h0Z" style="stroke-width:0px;"/><path d="M583.98,440.24v22.74c0,2.9,4.5,2.9,4.5,0v-22.74c0-2.9-4.5-2.9-4.5,0h0Z" style="stroke-width:0px;"/><path d="M569.55,474.33h19.71c2.9,0,2.9-4.5,0-4.5h-19.71c-2.9,0-2.9,4.5,0,4.5h0Z" style="stroke-width:0px;"/><path d="M602.91,457.65h9.1c2.9,0,2.9-4.5,0-4.5h-9.1c-2.9,0-2.9,4.5,0,4.5h0Z" style="stroke-width:0px;"/><path d="M613.91,444.8c.54,11.12,1.08,22.23,1.61,33.35.14,2.88,4.64,2.9,4.5,0-.54-11.12-1.08-22.23-1.61-33.35-.14-2.88-4.64-2.9-4.5,0h0Z" style="stroke-width:0px;"/><path d="M661.89,440.78c-15.12,8.29-4.04,36.07,12.92,28.16,7.52-3.5,11.91-12.93,7.5-20.44-3.77-6.42-12.69-10.65-19.88-7.95-2.69,1.01-1.52,5.36,1.2,4.34,4.73-1.78,10.17.42,13.44,4.06,4.56,5.08,2.33,12.29-3.35,15.51-12.04,6.83-20.26-13.93-9.55-19.8,2.54-1.39.27-5.28-2.27-3.89Z" style="stroke-width:0px;"/><path d="M625.4,435.92c6.56,17.37,2.01,36.53,7.99,54.06.93,2.73,5.28,1.56,4.34-1.2-5.97-17.51-1.41-36.66-7.99-54.06-1.01-2.68-5.37-1.52-4.34,1.2h0Z" style="stroke-width:0px;"/><path d="M686.48,429.58c1.01,11.87,2.03,23.74,3.04,35.6.92,10.72,1.37,21.65,4.76,31.94.9,2.74,5.25,1.57,4.34-1.2-3.47-10.53-3.83-21.75-4.77-32.72s-1.92-22.42-2.87-33.63c-.24-2.86-4.75-2.89-4.5,0h0Z" style="stroke-width:0px;"/><path d="M703.48,455.55c4.99-1.66,9.95-3.45,14.98-4.98,1.88-.57,3.92-1.27,5.91-1.09,4.62.42,3.8,5.2,3.31,8.56-1.35,9.25-3.8,18.29-7.02,27.05-1,2.72,3.35,3.9,4.34,1.2,2.5-6.79,4.52-13.72,5.94-20.82.93-4.69,3.06-11.52.87-16.13-1.86-3.92-6.11-4.69-10.07-4.17-6.57.87-13.19,3.95-19.45,6.03-2.74.91-1.56,5.26,1.2,4.34h0Z" style="stroke-width:0px;"/><path d="M719.65,477.34c7.57.61,15.14,1.21,22.72,1.82,2.89.23,2.87-4.27,0-4.5-7.57-.61-15.14-1.21-22.72-1.82-2.89-.23-2.87,4.27,0,4.5h0Z" style="stroke-width:0px;"/><path d="M762.59,439.39c3.55,18.29,5.38,36.8,5.52,55.43.02,2.89,4.52,2.9,4.5,0-.15-19.03-2.06-37.95-5.68-56.62-.55-2.84-4.89-1.64-4.34,1.2h0Z" style="stroke-width:0px;"/><path d="M783.38,426.17c3.18-2.43,6.72-4.8,10.69-5.67,6.55-1.44,10.84,4.6,7.4,10.37-2.62,4.39-8.15,5.58-12.86,5.84-3.16.17-6.56.29-8.95,2.7-3.55,3.58-2.42,9.63.59,13.16,4.98,5.83,13.6,4.34,20.18,2.91,2.83-.61,1.63-4.95-1.2-4.34-4.81,1.04-11.88,2.75-15.57-1.57-1.32-1.55-2.28-3.97-1.27-5.9,1.49-2.84,5.53-2.31,8.41-2.59,6.47-.63,13.32-3.72,15.65-10.24,2-5.59-.06-12.22-5.89-14.42-6.74-2.54-14.27,1.91-19.45,5.87-2.27,1.74-.03,5.65,2.27,3.89h0Z" style="stroke-width:0px;"/><path d="M788.53,475.99c10.62-3.02,21.23-6.03,31.85-9.05,2.78-.79,1.6-5.13-1.2-4.34-10.62,3.02-21.23,6.03-31.85,9.05-2.78.79-1.6,5.13,1.2,4.34h0Z" style="stroke-width:0px;"/><path d="M806.93,487.02c3.48-.79,7.64-1.55,11.13-.41,6.98,2.28,3.8,9.51-.92,12.46-6.26,3.91-14.26,4.31-18.41,11.2-2.95,4.9-2.08,10.89,2.95,14.01,7.31,4.53,15.71-.09,23.48,1.57,2.82.6,4.03-3.73,1.2-4.34-4.72-1.01-9.05-.12-13.8.28s-12.29-.76-10.74-7.23c2.15-8.95,16.39-8.69,21.89-15.26,3.73-4.46,4.54-11.16-.47-15.06s-11.96-2.82-17.52-1.56c-2.82.64-1.63,4.98,1.2,4.34h0Z" style="stroke-width:0px;"/><path d="M442.67,514.56c1.02,9.6,2.04,19.2,3.06,28.8.3,2.85,4.81,2.88,4.5,0-1.02-9.6-2.04-19.2-3.06-28.8-.3-2.85-4.81-2.88-4.5,0h0Z" style="stroke-width:0px;"/><path d="M448.86,536.41c3.03-1.01,6.06-2.02,9.1-3.03,2.73-.91,1.56-5.26-1.2-4.34-3.03,1.01-6.06,2.02-9.1,3.03-2.73.91-1.56,5.26,1.2,4.34h0Z" style="stroke-width:0px;"/><path d="M425.78,564.64c3.55-1.73,7.2-3.17,10.94-4.43,1.2-.4,4.07-.73,5.06-1.49l.66-.04-.84-.9c-.38.39-.55,1.52-.81,2.05-3.02,5.99-8.2,11.4-13.13,15.84-2.16,1.94,1.03,5.12,3.18,3.18,3.79-3.42,7.12-7.22,10.18-11.3,1.94-2.58,5.78-6.97,4.97-10.57-.74-3.27-4.09-2.93-6.65-2.31-5.43,1.34-10.81,3.64-15.84,6.08-2.6,1.27-.32,5.15,2.27,3.89h0Z" style="stroke-width:0px;"/><path d="M440.27,567.94c5.33.36,10.67.72,16,1.08,2.89.19,2.88-4.31,0-4.5-5.33-.36-10.67-.72-16-1.08-2.89-.19-2.88,4.31,0,4.5h0Z" style="stroke-width:0px;"/><path d="M468.95,518.81c-1.47,5.47,1.56,11.51,7.09,13.26s11.18-2.25,12.98-7.42c1.9-5.47-1.46-11.16-7.01-12.59s-11,1.57-13.06,6.75c-1.07,2.69,3.28,3.86,4.34,1.2,2.64-6.66,14.36-3.53,11.29,3.68-1.1,2.59-4.05,4.89-6.97,4.17-3.39-.84-5.18-4.66-4.32-7.85.75-2.8-3.59-4-4.34-1.2Z" style="stroke-width:0px;"/><path d="M460.41,547.37c13.41-.99,26.72-2.75,39.92-5.27,2.84-.54,1.64-4.88-1.2-4.34-12.81,2.45-25.72,4.15-38.73,5.11-2.87.21-2.89,4.71,0,4.5h0Z" style="stroke-width:0px;"/><path d="M481.03,561.18c2.01-.51,4.33-.9,6.38-.36,3.8.99,1.97,3.55-.12,5.49-2.97,2.76-5.29,5.61-4.47,9.94,1.6,8.4,12.13,9.38,16.48,2.64,1.58-2.44-2.32-4.7-3.89-2.27-1.93,2.99-6.43,3.28-7.89-.31-1.26-3.11.91-4.92,2.95-6.81,2.25-2.09,4.34-4.46,3.76-7.76-1.11-6.38-9.68-6.1-14.41-4.89-2.8.72-1.62,5.06,1.2,4.34h0Z" style="stroke-width:0px;"/><path d="M522.1,514.89c-3.69,7.39-8.07,14.36-13.21,20.83-1.78,2.24,1.38,5.45,3.18,3.18,5.39-6.78,10.05-13.99,13.92-21.74,1.29-2.58-2.59-4.87-3.89-2.27h0Z" style="stroke-width:0px;"/><path d="M517.42,531.79l16.62,3.34c2.83.57,4.04-3.77,1.2-4.34l-16.62-3.34c-2.83-.57-4.04,3.77-1.2,4.34h0Z" style="stroke-width:0px;"/><path d="M510.42,556.34c12.42,0,24.73-1.24,36.89-3.7,2.84-.57,1.64-4.91-1.2-4.34-11.78,2.38-23.68,3.54-35.7,3.53-2.9,0-2.9,4.5,0,4.5h0Z" style="stroke-width:0px;"/><path d="M530.91,552.43v22.74c0,2.9,4.5,2.9,4.5,0v-22.74c0-2.9-4.5-2.9-4.5,0h0Z" style="stroke-width:0px;"/><path d="M581.3,518.86c-6.08,2.1-11.42,8.73-10.1,15.45s8.84,9.39,14.81,8.19c15.18-3.04,10.99-28.02-4.7-23.65-2.79.78-1.6,5.12,1.2,4.34,10.04-2.8,11.95,13.5,2.2,14.98-3.62.55-8.7-1-9.17-5.22s3.21-8.46,6.97-9.76c2.72-.94,1.55-5.29-1.2-4.34Z" style="stroke-width:0px;"/><path d="M596.84,530.42h9.1c2.9,0,2.9-4.5,0-4.5h-9.1c-2.9,0-2.9,4.5,0,4.5h0Z" style="stroke-width:0px;"/><path d="M609.75,514.53v36.39c0,2.9,4.5,2.9,4.5,0v-36.39c0-2.9-4.5-2.9-4.5,0h0Z" style="stroke-width:0px;"/><path d="M579.43,555.46c0,6.06,0,12.13,0,18.19,0,2.9,4.5,2.9,4.5,0,0-6.06,0-12.13,0-18.19,0-2.9-4.5-2.9-4.5,0h0Z" style="stroke-width:0px;"/><path d="M590.25,558.51c-.58,7.07-1.15,14.14-1.73,21.21-.24,2.89,4.27,2.87,4.5,0,.58-7.07,1.15-14.14,1.73-21.21.24-2.89-4.27-2.87-4.5,0h0Z" style="stroke-width:0px;"/><path d="M580.79,574.43l7.57-1.55c2.84-.58,1.64-4.92-1.2-4.34-2.52.52-5.05,1.03-7.57,1.55-2.84.58-1.64,4.92,1.2,4.34h0Z" style="stroke-width:0px;"/><path d="M583.2,585h4.55c2.9,0,2.9-4.5,0-4.5h-4.55c-2.9,0-2.9,4.5,0,4.5h0Z" style="stroke-width:0px;"/><path d="M600.64,563.04c.17,7.77-1.71,14.97-5.67,21.65-1.48,2.5,2.41,4.76,3.89,2.27,4.34-7.32,6.47-15.42,6.29-23.92-.06-2.89-4.56-2.9-4.5,0h0Z" style="stroke-width:0px;"/><path d="M602,580.44c2.55-.48,5.1-.07,7.4,1.13,2.57,1.34,4.84-2.55,2.27-3.89-3.43-1.79-7.07-2.3-10.87-1.58-2.84.53-1.64,4.87,1.2,4.34h0Z" style="stroke-width:0px;"/><path d="M637.12,523.63c-.43,5.81-2.87,10.99-6.98,15.1-2.05,2.05,1.13,5.23,3.18,3.18,4.97-4.97,7.79-11.29,8.3-18.29.21-2.89-4.29-2.88-4.5,0h0Z" style="stroke-width:0px;"/><path d="M638.03,532.59c7.9,1.65,15.8,3.31,23.69,4.96,2.83.59,4.03-3.75,1.2-4.34-7.9-1.65-15.8-3.31-23.69-4.96-2.83-.59-4.03,3.75-1.2,4.34h0Z" style="stroke-width:0px;"/><path d="M621.08,551.82c17.38,2.16,34.79,1.91,52.12-.59,2.86-.41,1.64-4.75-1.2-4.34-16.9,2.44-33.98,2.53-50.92.43-2.87-.36-2.84,4.15,0,4.5h0Z" style="stroke-width:0px;"/><path d="M634.72,564.03c.06,9.29.12,18.57.18,27.86.02,2.89,4.52,2.9,4.5,0-.06-9.29-.12-18.57-.18-27.86-.02-2.89-4.52-2.9-4.5,0h0Z" style="stroke-width:0px;"/><path d="M653.78,563.65c1.94,6.39,3.88,12.77,5.82,19.16.84,2.76,5.18,1.59,4.34-1.2-1.94-6.39-3.88-12.77-5.82-19.16-.84-2.76-5.18-1.59-4.34,1.2h0Z" style="stroke-width:0px;"/><path d="M639.74,581.19c5.52-1.17,11.04-2.34,16.56-3.52,2.83-.6,1.63-4.94-1.2-4.34-5.52,1.17-11.04,2.34-16.56,3.52-2.83.6-1.63,4.94,1.2,4.34h0Z" style="stroke-width:0px;"/><path d="M637.57,594.3c8.26-3.31,16.53-6.61,24.79-9.92,2.66-1.06,1.5-5.42-1.2-4.34-8.26,3.31-16.53,6.61-24.79,9.92-2.66,1.06-1.5,5.42,1.2,4.34h0Z" style="stroke-width:0px;"/><path d="M680.67,541.85c.62,6.21.92,12.55,1.89,18.72.51,3.24,1.78,5.78,4.76,7.39,5.91,3.21,14.06,1.47,20.23-.11,2.8-.72,1.62-5.06-1.2-4.34-4.7,1.2-10.75,2.71-15.48,1.05-4.2-1.47-3.93-4.98-4.32-8.88-.46-4.61-.92-9.23-1.38-13.84-.28-2.85-4.79-2.88-4.5,0h0Z" style="stroke-width:0px;"/><path d="M716.44,543.33v37.9c0,2.9,4.5,2.9,4.5,0v-37.9c0-2.9-4.5-2.9-4.5,0h0Z" style="stroke-width:0px;"/><path d="M737.01,555.02c5.04-1.09,10.07-2.18,15.11-3.27,2.83-.61,1.63-4.95-1.2-4.34-5.04,1.09-10.07,2.18-15.11,3.27-2.83.61-1.63,4.95,1.2,4.34h0Z" style="stroke-width:0px;"/><path d="M729.8,548.49c.71,5.24,1.42,10.47,2.13,15.71.51,3.79.39,8.5,2.87,11.66,3.65,4.66,10.46,3.67,15.49,2.46,2.81-.68,1.62-5.02-1.2-4.34-2.37.57-5.31,1.36-7.73.72-3.99-1.05-4.09-4.35-4.56-7.77-.9-6.54-1.77-13.09-2.66-19.64-.39-2.86-4.72-1.64-4.34,1.2h0Z" style="stroke-width:0px;"/><path d="M766.06,543.34c-.67,13.17-.45,26.33.65,39.47.24,2.86,4.74,2.89,4.5,0-1.1-13.14-1.32-26.3-.65-39.47.15-2.89-4.35-2.89-4.5,0h0Z" style="stroke-width:0px;"/><path d="M770.27,568.2c7.6-1.43,15.19-2.86,22.79-4.29,2.84-.53,1.64-4.87-1.2-4.34-7.6,1.43-15.19,2.86-22.79,4.29-2.84.53-1.64,4.87,1.2,4.34h0Z" style="stroke-width:0px;"/><path d="M809.1,578.94c2.9,0,2.9-4.5,0-4.5s-2.9,4.5,0,4.5h0Z" style="stroke-width:0px;"/></g></svg>